<svg width="142" height="37" viewBox="0 0 142 37" fill="none" xmlns="http://www.w3.org/2000/svg">
<path d="M43.104 13.144V24.312H49.024V22.536H45.344V13.144H43.104Z" fill="white"/>
<path d="M50.4158 20.04C50.4158 22.984 52.4318 24.424 54.8798 24.424C57.3278 24.424 59.4398 22.984 59.4398 20.04V13.144H57.1838V20.056C57.1838 21.592 56.3518 22.392 54.9118 22.392C53.4878 22.392 52.6558 21.592 52.6558 20.056V13.144H50.4158V20.04Z" fill="white"/>
<path d="M68.292 24.312H70.868L67.3 18.76L70.804 13.144H68.276L66.1 16.888L63.684 13.144H61.108L64.676 18.68L61.156 24.312H63.684L65.876 20.552L68.292 24.312Z" fill="white"/>
<path d="M80.1568 24.312H82.5248L78.5088 13.128H75.9008L71.8848 24.312H74.2368L74.9728 22.184H79.4208L80.1568 24.312ZM78.8128 20.392H75.5808L77.1968 15.72L78.8128 20.392Z" fill="white"/>
<path d="M89.9459 16.616C89.9459 17.624 89.3859 18.28 88.1379 18.28H86.2659V15H88.1379C89.3859 15 89.9459 15.624 89.9459 16.616ZM84.0259 13.144V24.312H86.2659V19.96H87.3219L89.7859 24.312H92.3779L89.7059 19.784C91.4979 19.304 92.2499 17.928 92.2499 16.568C92.2499 14.696 90.9059 13.144 88.2179 13.144H84.0259Z" fill="white"/>
<path d="M100.756 13.128H94.2759V24.312H100.756V22.488H96.5159V19.528H100.276V17.752H96.5159V14.952H100.756V13.128Z" fill="white"/>
<path d="M106.06 18.712C106.06 22.056 108.508 24.408 111.724 24.408C114.204 24.408 116.22 23.096 116.972 20.792H114.396C113.868 21.88 112.908 22.408 111.708 22.408C109.756 22.408 108.364 20.968 108.364 18.712C108.364 16.44 109.756 15.016 111.708 15.016C112.908 15.016 113.868 15.544 114.396 16.616H116.972C116.22 14.328 114.204 13 111.724 13C108.508 13 106.06 15.368 106.06 18.712Z" fill="white"/>
<path d="M124.805 16.616C124.805 17.624 124.245 18.28 122.997 18.28H121.125V15H122.997C124.245 15 124.805 15.624 124.805 16.616ZM118.885 13.144V24.312H121.125V19.96H122.181L124.645 24.312H127.237L124.565 19.784C126.357 19.304 127.109 17.928 127.109 16.568C127.109 14.696 125.765 13.144 123.077 13.144H118.885Z" fill="white"/>
<path d="M129.135 24.312H131.375V17.048L134.383 24.312H136.079L139.071 17.048V24.312H141.311V13.144H138.783L135.231 21.448L131.679 13.144H129.135V24.312Z" fill="white"/>
<path d="M14.7086 0.794836C15.6674 0.273251 16.7415 0 17.833 0C18.9246 0 19.9987 0.273251 20.9575 0.794836L32.2512 6.93836C33.2846 7.50048 34.1471 8.33095 34.748 9.34225C35.3488 10.3536 35.6658 11.5082 35.6653 12.6845V24.3083C35.6653 25.4843 35.3482 26.6385 34.7474 27.6493C34.1466 28.6602 33.2842 29.4903 32.2512 30.0522L20.9575 36.1958C19.9987 36.7174 18.9246 36.9906 17.833 36.9906C16.7415 36.9906 15.6674 36.7174 14.7086 36.1958L3.41485 30.0522C2.38172 29.4904 1.51923 28.6603 0.91825 27.6495C0.31727 26.6386 4.81381e-05 25.4844 4.56387e-07 24.3083V12.6845C-0.000438985 11.5082 0.316473 10.3536 0.917335 9.34225C1.5182 8.33095 2.38075 7.50048 3.41409 6.93836L14.7086 0.794836Z" fill="#195344"/>
<path d="M15.3823 26.664L8.52984 19.8114L10.9069 17.4357H13.1896L15.1058 15.3359H9.52752L5.3562 19.8121L13.7556 28.3222L15.3823 26.664Z" fill="white"/>
<path d="M22.2929 28.3226L13.9189 19.8294L18.319 15.3447H25.7363L30.2636 19.8294L26.4803 24.0373L24.7793 22.5496L27.2384 19.8905L24.5021 17.4063H19.4659L17.1489 19.8294L23.9077 26.7156L22.1653 28.5006" fill="white"/>
<path d="M13.2001 13.5511C14.551 13.5511 15.646 12.456 15.646 11.1051C15.646 9.75427 14.551 8.65918 13.2001 8.65918C11.8492 8.65918 10.7542 9.75427 10.7542 11.1051C10.7542 12.456 11.8492 13.5511 13.2001 13.5511Z" fill="white"/>
<path d="M21.6506 13.5509C23.247 13.5509 24.5412 12.2567 24.5412 10.6602C24.5412 9.06373 23.247 7.76953 21.6506 7.76953C20.0541 7.76953 18.7599 9.06373 18.7599 10.6602C18.7599 12.2567 20.0541 13.5509 21.6506 13.5509Z" fill="white"/>
</svg>
